<mxfile host="app.diagrams.net" modified="2020-07-14T19:53:32.067Z" agent="5.0 (Macintosh; Intel Mac OS X 10_15_5) AppleWebKit/537.36 (KHTML, like Gecko) Chrome/83.0.4103.116 Safari/537.36" etag="asxGltLRV0nZnaeRabr6" version="13.4.2" type="github">
  <diagram id="KFNh0OBTtB54pOOY2KYq" name="Page-1">
    <mxGraphModel dx="2893" dy="1105" grid="1" gridSize="10" guides="1" tooltips="1" connect="1" arrows="1" fold="1" page="1" pageScale="1" pageWidth="827" pageHeight="1169" math="0" shadow="0">
      <root>
        <mxCell id="0" />
        <mxCell id="1" parent="0" />
        <mxCell id="2" value="Logical Address&lt;br&gt;" style="text;html=1;align=center;verticalAlign=middle;resizable=0;points=[];autosize=1;" vertex="1" parent="1">
          <mxGeometry x="140" y="180" width="100" height="20" as="geometry" />
        </mxCell>
        <mxCell id="1BfbhtUmELhzHSu8qsNg-10" style="edgeStyle=orthogonalEdgeStyle;curved=1;rounded=0;orthogonalLoop=1;jettySize=auto;html=1;entryX=0;entryY=0.75;entryDx=0;entryDy=0;strokeWidth=3;fillColor=#d80073;strokeColor=#A50040;" edge="1" parent="1" source="1BfbhtUmELhzHSu8qsNg-2" target="1BfbhtUmELhzHSu8qsNg-5">
          <mxGeometry relative="1" as="geometry">
            <Array as="points">
              <mxPoint x="120" y="330" />
              <mxPoint x="175" y="330" />
              <mxPoint x="175" y="420" />
            </Array>
          </mxGeometry>
        </mxCell>
        <mxCell id="1BfbhtUmELhzHSu8qsNg-2" value="segment Selector" style="rounded=0;whiteSpace=wrap;html=1;" vertex="1" parent="1">
          <mxGeometry x="100" y="240" width="70" height="30" as="geometry" />
        </mxCell>
        <mxCell id="1BfbhtUmELhzHSu8qsNg-11" style="edgeStyle=orthogonalEdgeStyle;curved=1;rounded=0;orthogonalLoop=1;jettySize=auto;html=1;strokeWidth=3;fillColor=#d80073;strokeColor=#A50040;entryX=0;entryY=0.75;entryDx=0;entryDy=0;" edge="1" parent="1" source="1BfbhtUmELhzHSu8qsNg-3" target="1BfbhtUmELhzHSu8qsNg-18">
          <mxGeometry relative="1" as="geometry">
            <mxPoint x="450" y="390" as="targetPoint" />
          </mxGeometry>
        </mxCell>
        <mxCell id="1BfbhtUmELhzHSu8qsNg-3" value="offset" style="rounded=0;whiteSpace=wrap;html=1;" vertex="1" parent="1">
          <mxGeometry x="190" y="240" width="130" height="30" as="geometry" />
        </mxCell>
        <mxCell id="1BfbhtUmELhzHSu8qsNg-4" value="" style="rounded=0;whiteSpace=wrap;html=1;" vertex="1" parent="1">
          <mxGeometry x="195" y="320" width="120" height="220" as="geometry" />
        </mxCell>
        <mxCell id="1BfbhtUmELhzHSu8qsNg-14" style="edgeStyle=orthogonalEdgeStyle;curved=1;rounded=0;orthogonalLoop=1;jettySize=auto;html=1;entryX=0;entryY=1;entryDx=0;entryDy=0;strokeWidth=3;fillColor=#d80073;strokeColor=#A50040;" edge="1" parent="1" source="1BfbhtUmELhzHSu8qsNg-5" target="1BfbhtUmELhzHSu8qsNg-17">
          <mxGeometry relative="1" as="geometry">
            <mxPoint x="435.8578643762694" y="424.1421356237306" as="targetPoint" />
          </mxGeometry>
        </mxCell>
        <mxCell id="1BfbhtUmELhzHSu8qsNg-5" value="Segment Descriptor" style="rounded=0;whiteSpace=wrap;html=1;" vertex="1" parent="1">
          <mxGeometry x="195" y="390" width="120" height="40" as="geometry" />
        </mxCell>
        <mxCell id="1BfbhtUmELhzHSu8qsNg-6" value="Global Descriptor Table" style="text;html=1;align=center;verticalAlign=middle;resizable=0;points=[];autosize=1;" vertex="1" parent="1">
          <mxGeometry x="185" y="290" width="140" height="20" as="geometry" />
        </mxCell>
        <mxCell id="1BfbhtUmELhzHSu8qsNg-9" style="edgeStyle=orthogonalEdgeStyle;rounded=0;orthogonalLoop=1;jettySize=auto;html=1;entryX=0.042;entryY=0.068;entryDx=0;entryDy=0;entryPerimeter=0;curved=1;fillColor=#d80073;strokeColor=#A50040;strokeWidth=3;" edge="1" parent="1" source="1BfbhtUmELhzHSu8qsNg-8" target="1BfbhtUmELhzHSu8qsNg-4">
          <mxGeometry relative="1" as="geometry">
            <Array as="points">
              <mxPoint x="5" y="290" />
              <mxPoint x="200" y="290" />
            </Array>
          </mxGeometry>
        </mxCell>
        <mxCell id="1BfbhtUmELhzHSu8qsNg-8" value="GDTR" style="rounded=0;whiteSpace=wrap;html=1;" vertex="1" parent="1">
          <mxGeometry x="-30" y="320" width="70" height="30" as="geometry" />
        </mxCell>
        <mxCell id="1BfbhtUmELhzHSu8qsNg-15" value="Base address" style="text;html=1;align=center;verticalAlign=middle;resizable=0;points=[];autosize=1;" vertex="1" parent="1">
          <mxGeometry x="320" y="380" width="90" height="20" as="geometry" />
        </mxCell>
        <mxCell id="1BfbhtUmELhzHSu8qsNg-16" value="" style="rounded=0;whiteSpace=wrap;html=1;" vertex="1" parent="1">
          <mxGeometry x="530" y="240" width="120" height="380" as="geometry" />
        </mxCell>
        <mxCell id="1BfbhtUmELhzHSu8qsNg-17" value="" style="rounded=0;whiteSpace=wrap;html=1;" vertex="1" parent="1">
          <mxGeometry x="530" y="370" width="120" height="110" as="geometry" />
        </mxCell>
        <mxCell id="1BfbhtUmELhzHSu8qsNg-29" style="edgeStyle=orthogonalEdgeStyle;curved=1;rounded=0;orthogonalLoop=1;jettySize=auto;html=1;entryX=1;entryY=0.5;entryDx=0;entryDy=0;strokeWidth=3;fillColor=#d80073;strokeColor=#A50040;" edge="1" parent="1" source="1BfbhtUmELhzHSu8qsNg-18" target="1BfbhtUmELhzHSu8qsNg-27">
          <mxGeometry relative="1" as="geometry" />
        </mxCell>
        <mxCell id="1BfbhtUmELhzHSu8qsNg-18" value="Linear address" style="rounded=0;whiteSpace=wrap;html=1;" vertex="1" parent="1">
          <mxGeometry x="530" y="400" width="120" height="30" as="geometry" />
        </mxCell>
        <mxCell id="1BfbhtUmELhzHSu8qsNg-19" value="Segment" style="text;html=1;strokeColor=none;fillColor=none;align=center;verticalAlign=middle;whiteSpace=wrap;rounded=0;" vertex="1" parent="1">
          <mxGeometry x="570" y="330" width="40" height="20" as="geometry" />
        </mxCell>
        <mxCell id="1BfbhtUmELhzHSu8qsNg-20" value="" style="endArrow=none;dashed=1;html=1;strokeWidth=4;exitX=0.008;exitY=0.127;exitDx=0;exitDy=0;exitPerimeter=0;" edge="1" parent="1" source="1BfbhtUmELhzHSu8qsNg-17">
          <mxGeometry width="50" height="50" relative="1" as="geometry">
            <mxPoint x="530" y="420" as="sourcePoint" />
            <mxPoint x="650" y="383" as="targetPoint" />
          </mxGeometry>
        </mxCell>
        <mxCell id="1BfbhtUmELhzHSu8qsNg-21" value="" style="endArrow=none;dashed=1;html=1;strokeWidth=4;entryX=1;entryY=0.118;entryDx=0;entryDy=0;entryPerimeter=0;exitX=0.008;exitY=0.127;exitDx=0;exitDy=0;exitPerimeter=0;" edge="1" parent="1">
          <mxGeometry width="50" height="50" relative="1" as="geometry">
            <mxPoint x="530.96" y="450.99" as="sourcePoint" />
            <mxPoint x="650" y="450" as="targetPoint" />
            <Array as="points">
              <mxPoint x="590" y="450.02" />
            </Array>
          </mxGeometry>
        </mxCell>
        <mxCell id="1BfbhtUmELhzHSu8qsNg-23" value="" style="endArrow=classic;html=1;strokeWidth=2;dashed=1;" edge="1" parent="1">
          <mxGeometry width="50" height="50" relative="1" as="geometry">
            <mxPoint x="640" y="390" as="sourcePoint" />
            <mxPoint x="690" y="340" as="targetPoint" />
          </mxGeometry>
        </mxCell>
        <mxCell id="1BfbhtUmELhzHSu8qsNg-24" value="&lt;font style=&quot;font-size: 15px&quot;&gt;page&lt;/font&gt;" style="text;html=1;align=center;verticalAlign=middle;resizable=0;points=[];autosize=1;" vertex="1" parent="1">
          <mxGeometry x="685" y="320" width="50" height="20" as="geometry" />
        </mxCell>
        <mxCell id="1BfbhtUmELhzHSu8qsNg-33" style="edgeStyle=orthogonalEdgeStyle;rounded=0;orthogonalLoop=1;jettySize=auto;html=1;entryX=0;entryY=0.5;entryDx=0;entryDy=0;strokeWidth=3;curved=1;fillColor=#d80073;strokeColor=#A50040;" edge="1" parent="1" source="1BfbhtUmELhzHSu8qsNg-25" target="1BfbhtUmELhzHSu8qsNg-34">
          <mxGeometry relative="1" as="geometry" />
        </mxCell>
        <mxCell id="1BfbhtUmELhzHSu8qsNg-25" value="Dir" style="rounded=0;whiteSpace=wrap;html=1;" vertex="1" parent="1">
          <mxGeometry x="120" y="720" width="50" height="30" as="geometry" />
        </mxCell>
        <mxCell id="1BfbhtUmELhzHSu8qsNg-37" style="edgeStyle=orthogonalEdgeStyle;curved=1;rounded=0;orthogonalLoop=1;jettySize=auto;html=1;entryX=0;entryY=0.75;entryDx=0;entryDy=0;strokeWidth=3;fillColor=#d80073;strokeColor=#A50040;" edge="1" parent="1" source="1BfbhtUmELhzHSu8qsNg-26" target="1BfbhtUmELhzHSu8qsNg-36">
          <mxGeometry relative="1" as="geometry" />
        </mxCell>
        <mxCell id="1BfbhtUmELhzHSu8qsNg-26" value="Table" style="rounded=0;whiteSpace=wrap;html=1;" vertex="1" parent="1">
          <mxGeometry x="170" y="720" width="50" height="30" as="geometry" />
        </mxCell>
        <mxCell id="1BfbhtUmELhzHSu8qsNg-42" style="edgeStyle=orthogonalEdgeStyle;curved=1;rounded=0;orthogonalLoop=1;jettySize=auto;html=1;entryX=0;entryY=0.75;entryDx=0;entryDy=0;strokeWidth=3;fillColor=#d80073;strokeColor=#A50040;" edge="1" parent="1" source="1BfbhtUmELhzHSu8qsNg-27" target="1BfbhtUmELhzHSu8qsNg-39">
          <mxGeometry relative="1" as="geometry" />
        </mxCell>
        <mxCell id="1BfbhtUmELhzHSu8qsNg-27" value="Offset" style="rounded=0;whiteSpace=wrap;html=1;" vertex="1" parent="1">
          <mxGeometry x="220" y="720" width="90" height="30" as="geometry" />
        </mxCell>
        <mxCell id="1BfbhtUmELhzHSu8qsNg-28" value="Linear Address" style="text;html=1;align=center;verticalAlign=middle;resizable=0;points=[];autosize=1;" vertex="1" parent="1">
          <mxGeometry x="160" y="690" width="100" height="20" as="geometry" />
        </mxCell>
        <mxCell id="1BfbhtUmELhzHSu8qsNg-30" value="" style="rounded=0;whiteSpace=wrap;html=1;" vertex="1" parent="1">
          <mxGeometry x="30" y="820" width="120" height="200" as="geometry" />
        </mxCell>
        <mxCell id="1BfbhtUmELhzHSu8qsNg-31" value="" style="rounded=0;whiteSpace=wrap;html=1;" vertex="1" parent="1">
          <mxGeometry x="260" y="820" width="120" height="200" as="geometry" />
        </mxCell>
        <mxCell id="1BfbhtUmELhzHSu8qsNg-32" value="" style="rounded=0;whiteSpace=wrap;html=1;" vertex="1" parent="1">
          <mxGeometry x="520" y="820" width="120" height="390" as="geometry" />
        </mxCell>
        <mxCell id="1BfbhtUmELhzHSu8qsNg-35" style="edgeStyle=orthogonalEdgeStyle;curved=1;rounded=0;orthogonalLoop=1;jettySize=auto;html=1;entryX=0;entryY=0.05;entryDx=0;entryDy=0;strokeWidth=3;entryPerimeter=0;fillColor=#d80073;strokeColor=#A50040;" edge="1" parent="1" source="1BfbhtUmELhzHSu8qsNg-34" target="1BfbhtUmELhzHSu8qsNg-31">
          <mxGeometry relative="1" as="geometry" />
        </mxCell>
        <mxCell id="1BfbhtUmELhzHSu8qsNg-34" value="Entry" style="rounded=0;whiteSpace=wrap;html=1;" vertex="1" parent="1">
          <mxGeometry x="30" y="880" width="120" height="30" as="geometry" />
        </mxCell>
        <mxCell id="1BfbhtUmELhzHSu8qsNg-41" style="edgeStyle=orthogonalEdgeStyle;curved=1;rounded=0;orthogonalLoop=1;jettySize=auto;html=1;entryX=0;entryY=0.1;entryDx=0;entryDy=0;strokeWidth=3;entryPerimeter=0;fillColor=#d80073;strokeColor=#A50040;" edge="1" parent="1" source="1BfbhtUmELhzHSu8qsNg-36" target="1BfbhtUmELhzHSu8qsNg-38">
          <mxGeometry relative="1" as="geometry" />
        </mxCell>
        <mxCell id="1BfbhtUmELhzHSu8qsNg-36" value="Entry" style="rounded=0;whiteSpace=wrap;html=1;" vertex="1" parent="1">
          <mxGeometry x="260" y="950" width="120" height="30" as="geometry" />
        </mxCell>
        <mxCell id="1BfbhtUmELhzHSu8qsNg-38" value="" style="rounded=0;whiteSpace=wrap;html=1;dashed=1;" vertex="1" parent="1">
          <mxGeometry x="520" y="850" width="120" height="100" as="geometry" />
        </mxCell>
        <mxCell id="1BfbhtUmELhzHSu8qsNg-39" value="Physical Address" style="rounded=0;whiteSpace=wrap;html=1;" vertex="1" parent="1">
          <mxGeometry x="520" y="887.5" width="120" height="22.5" as="geometry" />
        </mxCell>
        <mxCell id="1BfbhtUmELhzHSu8qsNg-40" value="Page" style="text;html=1;strokeColor=none;fillColor=none;align=center;verticalAlign=middle;whiteSpace=wrap;rounded=0;" vertex="1" parent="1">
          <mxGeometry x="560" y="860" width="40" height="20" as="geometry" />
        </mxCell>
        <mxCell id="1BfbhtUmELhzHSu8qsNg-43" value="&lt;font style=&quot;font-size: 15px&quot;&gt;Physical Address Space&lt;/font&gt;" style="text;html=1;align=center;verticalAlign=middle;resizable=0;points=[];autosize=1;" vertex="1" parent="1">
          <mxGeometry x="500" y="780" width="180" height="20" as="geometry" />
        </mxCell>
        <mxCell id="1BfbhtUmELhzHSu8qsNg-44" value="&lt;font style=&quot;font-size: 14px&quot;&gt;Page table&lt;/font&gt;" style="text;html=1;align=center;verticalAlign=middle;resizable=0;points=[];autosize=1;" vertex="1" parent="1">
          <mxGeometry x="270" y="780" width="80" height="20" as="geometry" />
        </mxCell>
        <mxCell id="1BfbhtUmELhzHSu8qsNg-45" value="&lt;font style=&quot;font-size: 14px&quot;&gt;Page Directory&lt;/font&gt;" style="text;html=1;align=center;verticalAlign=middle;resizable=0;points=[];autosize=1;" vertex="1" parent="1">
          <mxGeometry x="30" y="780" width="110" height="20" as="geometry" />
        </mxCell>
        <mxCell id="1BfbhtUmELhzHSu8qsNg-46" value="&lt;font style=&quot;font-size: 15px&quot;&gt;Linear Address Space&lt;/font&gt;" style="text;html=1;align=center;verticalAlign=middle;resizable=0;points=[];autosize=1;" vertex="1" parent="1">
          <mxGeometry x="510" y="190" width="160" height="20" as="geometry" />
        </mxCell>
        <mxCell id="1BfbhtUmELhzHSu8qsNg-49" value="&lt;font style=&quot;font-size: 16px&quot;&gt;Segmentation&lt;/font&gt;" style="strokeWidth=2;html=1;shape=mxgraph.flowchart.annotation_1;align=left;pointerEvents=1;" vertex="1" parent="1">
          <mxGeometry x="-80" y="230" width="50" height="370" as="geometry" />
        </mxCell>
        <mxCell id="1BfbhtUmELhzHSu8qsNg-50" value="&lt;font style=&quot;font-size: 16px&quot;&gt;Paging&lt;/font&gt;" style="strokeWidth=2;html=1;shape=mxgraph.flowchart.annotation_1;align=left;pointerEvents=1;" vertex="1" parent="1">
          <mxGeometry x="-80" y="720" width="50" height="490" as="geometry" />
        </mxCell>
      </root>
    </mxGraphModel>
  </diagram>
</mxfile>
